<?xml version="1.0" encoding="UTF-8" standalone="no"?>
<svg width="16px" height="14px" viewBox="0 0 16 14" version="1.1" xmlns="http://www.w3.org/2000/svg" xmlns:xlink="http://www.w3.org/1999/xlink">
    <defs></defs>
    <g id="Blocks" stroke="none" stroke-width="1" fill="none" fill-rule="evenodd">
        <g id="HistorySquare" transform="translate(0.000000, -1.000000)">
            <g id="History-Copy">
                <rect id="Rectangle-61" fill-opacity="0" fill="#D8D8D8" x="0" y="0" width="16" height="16"></rect>
                <g id="cover" transform="translate(8.000000, 9.170588) scale(-1, 1) translate(-8.000000, -9.170588) translate(0.000000, 3.670588)" stroke="#000000" fill="#6AB57A">
                    <path d="M0.708144903,0 C0.317047273,0 0,0.306824 0,0.697811351 L0,9.93748277 C0,10.3228733 0.319606066,10.6352941 0.708144903,10.6352941 L15.2918551,10.6352941 C15.6829527,10.6352941 16,10.3284701 16,9.93748277 L16,0.697811351 C16,0.312420784 15.6803939,0 15.2918551,0 L0.708144903,0 Z" id="Rectangle-2"></path>
                </g>
                <g id="leftpage" transform="translate(0.611765, 1.741176)" stroke="#000000">
                    <path d="M1.41350452,0 C0.632847532,0 0,0.622924924 0,1.41553842 L0,10.295167 C0,10.6844355 0.311651749,11 0.711202422,11 L6.99537197,11 C7.38815822,11 7.70657439,10.6826544 7.70657439,10.295167 L7.70657439,0.704832956 C7.70657439,0.315564463 7.39492265,0 6.99537197,0 L1.41350452,0 Z" id="Rectangle-2" fill="#FFFFFF" transform="translate(3.853287, 5.500000) scale(-1, 1) translate(-3.853287, -5.500000) "></path>
                    <path id="Line" stroke-width="0.5" stroke-linecap="round" d="M1.90256055,3.52941176 L5.805203,3.52941176"></path>
                    <path id="Line-Copy" stroke-width="0.5" stroke-linecap="round" d="M1.90256055,5.31764706 L5.805203,5.31764706"></path>
                    <path id="Line-Copy-2" stroke-width="0.5" stroke-linecap="round" d="M1.90256055,7.10588235 L5.805203,7.10588235"></path>
                </g>
                <g id="rightpage" transform="translate(11.294118, 7.241176) scale(-1, 1) translate(-11.294118, -7.241176) translate(7.294118, 1.741176)" stroke="#000000">
                    <path d="M1.41622476,0 C0.634065423,0 0,0.622924924 0,1.41553842 L0,10.295167 C0,10.6844355 0.323529412,11 0.708348779,11 L6.82106299,11 C7.21227321,11 7.52941176,10.6826544 7.52941176,10.295167 L7.52941176,0.704832956 C7.52941176,0.315564463 7.20588235,0 6.82106299,0 L1.41622476,0 Z" id="Rectangle-2" fill="#FFFFFF" transform="translate(3.764706, 5.500000) scale(-1, 1) translate(-3.764706, -5.500000) "></path>
                    <path id="Line" stroke-width="0.5" stroke-linecap="round" d="M1.85882353,3.52941176 L5.67175006,3.52941176"></path>
                    <path id="Line-Copy" stroke-width="0.5" stroke-linecap="round" d="M1.85882353,5.31764706 L5.67175006,5.31764706"></path>
                    <path id="Line-Copy-2" stroke-width="0.5" stroke-linecap="round" d="M1.85882353,7.10588235 L5.67175006,7.10588235"></path>
                </g>
            </g>
        </g>
    </g>
</svg>