<svg width="16" height="14" viewBox="0 0 16 14" xmlns="http://www.w3.org/2000/svg"><g fill="none" fill-rule="evenodd"><path fill="none" d="M0-1h16v16H0z"/><path d="M15.292 2.67A.7.7 0 0 1 16 3.37v9.24c0 .385-.32.698-.708.698H.708A.7.7 0 0 1 0 12.608v-9.24c0-.385.32-.697.708-.697h14.584z" stroke="#000" fill="#6AB57A"/><g stroke="#000"><path d="M6.905.74c.78 0 1.413.624 1.413 1.417v8.88c0 .39-.31.704-.71.704H1.322a.71.71 0 0 1-.71-.704v-9.59c0-.39.31-.705.71-.705h5.582z" fill="#FFF"/><path stroke-width=".5" stroke-linecap="round" d="M2.514 4.27h3.903M2.514 6.06h3.903M2.514 7.847h3.903"/></g><g stroke="#000"><path d="M9.18.74a1.41 1.41 0 0 0-1.415 1.417v8.88c0 .39.323.704.708.704h6.113c.39 0 .708-.316.708-.704v-9.59a.71.71 0 0 0-.708-.705H9.18z" fill="#FFF"/><path stroke-width=".5" stroke-linecap="round" d="M13.435 4.27H9.622M13.435 6.06H9.622M13.435 7.847H9.622"/></g></g></svg>