<svg width="358" height="103" viewBox="0 0 358 103" xmlns="http://www.w3.org/2000/svg"><title>logo-droplets</title><g fill="none" fill-rule="evenodd"><path d="M135 42.05c3.76-1.657 7.753-2.485 11.59-2.485 3.68 0 6.03.903 7.36 2.787 2.82-1.882 6.656-2.787 9.632-2.787 8.928 0 9.24 3.615 9.24 14.232v23.49c0 1.055.157 1.055-4.306 1.055V53.344c0-7.68-.157-10.014-5.245-10.014-2.27 0-4.62.526-7.125 2.183v32.3c-.08.303-.236.378-.782.452-.08 0-.157.075-.237.075h-3.29V53.344c0-7.378 0-10.09-5.323-10.09-2.27 0-4.542.452-7.205 1.733v32.3c0 1.055.157 1.055-4.306 1.055V42.05m58.87-2.485c-6.655 0-14.016 1.882-14.016 21.987 0 15.51 5.402 17.92 12.843 17.92 5.713 0 10.647-1.883 10.647-2.787 0-1.13-.157-2.86-.548-3.84-2.43 1.656-5.875 2.56-9.71 2.56-5.247 0-8.77-1.507-8.85-13.177 3.446 0 12.217-.075 18.716-1.356.548-2.485.782-6.1.782-9.26 0-7.53-3.055-12.047-9.866-12.047m-.392 3.765c4.7 0 5.95 3.086 6.03 9.11 0 1.58-.08 3.462-.314 5.27-4.385 1.054-11.826 1.054-14.958 1.054.55-13.702 5.248-15.434 9.242-15.434m17.072-.452c3.678-2.41 7.048-3.313 10.493-3.313 3.837 0 5.64 1.055 5.64 2.336 0 .753-.238 2.034-.63 2.787-1.096-.603-2.347-1.13-4.386-1.13-2.505 0-4.855.677-6.733 2.334v31.4c0 1.054.078 1.054-4.385 1.054V42.878m39.533-.828c0-.98-3.288-2.485-6.577-2.485-6.345 0-14.096 2.184-14.096 20.78 0 17.62 4.7 19.2 12.92 19.2 4.07 0 7.753-2.182 7.753-3.386a7.13 7.13 0 0 0-.55-2.638c-1.644 1.204-4.15 2.335-6.81 2.335-5.637 0-8.927-1.58-8.927-15.284 0-15.135 5.402-17.243 10.1-17.243 2.662 0 4.15.752 5.638 1.732.394-.903.55-2.184.55-3.012m29.996 35.013c-3.447 1.732-7.987 2.41-11.903 2.41-10.024 0-11.512-4.215-11.512-14.23V41.676c0-.978-.077-.978 4.386-.978v24.998c0 7.53 1.096 10.09 6.968 10.09 2.27 0 5.404-.45 7.753-1.807V41.677c0-.978-.157-.978 4.307-.978v36.363m8.93-34.185c3.678-2.41 7.046-3.313 10.49-3.313 3.838 0 5.64 1.055 5.64 2.336 0 .753-.236 2.034-.626 2.787-1.097-.603-2.35-1.13-4.387-1.13-2.505 0-4.855.677-6.735 2.334v31.4c0 1.054.08 1.054-4.383 1.054V42.878m26.184-2.183c-3.446 0-4.463 0-4.463 2.033v35.614c4.385 0 4.463 0 4.463-1.054V40.695m-4.62-13.25c0 2.484.783 3.386 2.347 3.46 1.802 0 2.664-1.278 2.664-3.538.078-2.333-.55-3.388-2.35-3.388-1.72 0-2.583 1.28-2.66 3.464m12.047 15.434c0-.828.157-1.28.47-1.506 1.49-.827 7.206-1.807 13.705-1.807 4.933 0 8.064 2.336 8.064 9.11v4.894c0 13.402-.39 23.416-.39 23.416-1.802.978-5.168 2.485-10.652 2.485-5.637.076-11.274-.45-11.274-11.594 0-10.616 5.794-12.273 11.588-12.273 2.192 0 4.777.226 6.5.904v-7.003c0-4.894-2.504-5.948-5.482-5.948-3.992 0-9.55.753-11.98 1.882-.47-.828-.55-2.108-.55-2.56m18.01 16.717c-1.487-.528-3.6-.753-5.09-.753-4.462 0-8.535.903-8.535 9.186 0 7.754 3.367 7.83 7.36 7.83 2.506 0 5.012-.677 5.872-1.58.002 0 .393-9.037.393-14.683m16.617 17.693c0 1.054.078 1.054-4.308 1.054V25.034c0-2.034.86-2.034 4.308-2.034v54.288" fill="#010101"/><g transform="translate(.19 .164)"><path d="M98.423 78.263c18.74-31.16-3.958-81.696-45.46-76.562-37.5 4.637-38.103 44.106-5.055 53.483 28.598 8.12 5.908 26.26 6.57 38.34.667 12.08 24.863 16.46 43.945-15.26z" fill="#1B1A1B"/><circle fill="#1B1A1B" transform="rotate(-14.67 29.844 82.342)" cx="29.844" cy="82.342" r="16.268"/><path d="M10.228 37.345C4.376 37.912.093 43.11.658 48.962c.57 5.856 5.767 10.143 11.62 9.576 5.85-.574 10.138-5.77 9.57-11.623-.57-5.848-5.767-10.136-11.62-9.57z" fill="#1B1A1B"/><path d="M99.13 77C117.873 45.84 95.175-4.698 53.67.436 16.174 5.073 15.57 44.543 48.617 53.92c28.598 8.12 5.908 26.26 6.57 38.342C55.855 104.34 80.05 108.72 99.132 77z" fill="#BFBFBF"/><path d="M59.996 97.03c-1.136-1.843.6-3.89 2.386-3.734 2.842.25 9.03-.033 13.91-2.8C88.49 83.582 107.26 50.314 97.82 29.33 93.592 19.94 91.534 17.25 87.18 12.655c-.888-.937-.378-.886.223-.57 2.354 1.236 6.49 6.02 10.732 13.808 7.168 13.156 6.796 28.797 4.13 38.61-1.857 6.825-8.253 22.266-17.62 28.942-9.387 6.69-20.372 10.53-24.65 3.585zM51.497 53.856c-6.39-1.897-14.627-4.54-19.392-10.77-3.512-4.596-5.295-9.61-5.75-12.455-.163-1.014-.3-1.86-.008-2.094.135-.108 2.623 5.514 6.342 10.227 3.717 4.714 8.914 7.47 13.243 8.472 3.85.89 11.827 2.846 14.525 5.145 2.775 2.364 3.006 7.47 2.073 8.046-.94.58-2.85-4.143-11.033-6.57z" fill="#000"/><path d="M64.673 97.93c-.123 1.463 1.557 1.75 3.818 1.41 2.9-.434 5.35-.76 8.686-2.432 4.52-2.266 9.097-5.507 12.448-9.88 9.998-13.045 13.54-28.48 12.993-30.7-.182 1.834-2.596 11.46-8.116 20.136-7.088 11.145-12.23 17.082-24.086 19.96-3.3.8-5.58-.42-5.74 1.506zM38.376 47.205c1.35 1.145 4.117 2.672 9.56 4.457 6.577 2.156 9.778 4.025 11.12 4.92 1.42.953 2.32 3.076 2.41 1.19.092-1.887-1.072-3.51-3.667-4.37-1.758-.585-4.712-1.973-7.545-2.532a82.392 82.392 0 0 1-7.32-1.85c-1.39-.428-2.81-1.177-4.56-1.815z" fill="#FFF"/><circle fill="#BFBFBF" transform="rotate(-14.67 30.553 81.078)" cx="30.553" cy="81.078" r="16.268"/><path d="M20.868 92.933c12.654 11.725 31.7-4.38 23.313-18.606-.94-1.597-2.164-2.813-1.762-1.59 2.68 8.18.204 14.65-4.417 17.984-4.53 3.27-10.758 3.818-15.744 1.233-1.464-.76-2.072.347-1.388.98z" fill="#000"/><path d="M30.797 95.34c1.61-.338 10.98-2.764 13.182-10.47.684-2.404.807-1.92.614-.62-.99 6.646-7.27 11.548-12.615 11.73-1.086.11-2.51-.36-1.183-.64z" fill="#FFF"/><path d="M10.937 36.08C5.085 36.648.8 41.847 1.367 47.698c.568 5.855 5.766 10.143 11.618 9.577 5.852-.574 10.14-5.772 9.57-11.624-.568-5.85-5.765-10.136-11.618-9.57z" fill="#BFBFBF"/><path d="M6.108 54.772c.064.752 1.095 1.718 2.713 2.162 1.39.38 4.975 1.355 9.58-1.55 4.604-2.907 5.135-10.68 3.042-12.967-.648-1.158-1.49-2-.82-.153 1.693 4.667-1.597 9.032-4.434 11.054-2.837 2.02-6.434 1.064-7.903.617-1.47-.448-2.243.06-2.177.837z" fill="#000"/><path d="M12.05 55.816c.42-.38 2.558-.225 4.487-1.262 1.928-1.037 4.22-3.31 4.628-6.54.24-1.898.313-1.42.41-.388-.3 5.37-5.24 8.337-8.064 8.728-.76.106-2.102.04-1.46-.538z" fill="#FFF"/><path d="M96.536 56.757c7.98-23-8.718-57.732-42.497-53.554-30.523 3.774-31.015 35.9-4.117 43.532 30.47 4.612 12.122 27.596 9.52 39.187-2.334 10.39 24.623 12.1 37.093-29.165z" fill="#999"/><path d="M75.66 74.72c-8.256-1.02-20.134 17.616-8.934 15.433 11.198-2.18-11.2 2.183 0 0 5.383-.798 9.843-2.7 13.835-7.256 5.207-5.94 12.983-18.772 15.232-27.062 1.894-6.99.942-17.82-1.01-7.645-2.004 10.443-10.87 27.553-19.123 26.53z" fill="#F3F3F3"/><path d="M20.213 89.628c1.91.032 3.066.3 5.002 1.66 3.825 1.588 10.856.58 14.103-3.693 3.247-4.275 3.354-10.164 2.117-13.723-3.027-8.71-15.883-8.556-21.627-1.325-6.213 8.075-1.506 17.05.405 17.08zM3.146 49.266c.38 1.2 1.354 2.95 3.41 3.242 2.744.39 3.305 1.63 6.546.986 3.24-.643 5.697-3.3 6.68-6.237 1.126-4.065-.56-6.164-3.095-8.037-2.536-1.874-8.115-1.672-11.444 1.363-2.366 2.155-3.024 5.763-2.097 8.683z" fill="#999"/><path d="M13.924 51.954c2.49-.652 5.783-4.045 4.15-6.635-2.02-3.193-7.638-.46-7.828 3.093-.19 3.555 1.04 4.232 3.678 3.54zM32.622 90.25c2.125-.557 8.634-3.206 7.41-12.67-.618-4.792-3.232 5.95-8.073 7.557-7.335 2.434-6.51 6.99.662 5.112z" fill="#F3F3F3"/></g></g></svg>